<svg width="26" height="27" viewBox="0 0 26 27" fill="none" xmlns="http://www.w3.org/2000/svg">
<g clip-path="url(#clip0)">
<path d="M19.7117 9.8371H19.2882V6.74917C19.2883 3.28218 16.4674 0.461548 13 0.461548C9.53279 0.461548 6.71191 3.28218 6.71191 6.74917V9.8371H6.28817C5.05292 9.8371 4.04785 10.8422 4.04785 12.0774V24.2211C4.04785 25.4564 5.05292 26.4614 6.28817 26.4614H19.7117C20.9469 26.4614 21.952 25.4564 21.952 24.2211V12.0774C21.952 10.8422 20.947 9.8371 19.7117 9.8371ZM8.63218 6.74917C8.63218 4.34101 10.5916 2.38182 13 2.38182C15.4084 2.38182 17.3679 4.34101 17.3679 6.74917V9.8371H8.63218V6.74917ZM20.0317 24.2212C20.0317 24.3947 19.8851 24.5413 19.7117 24.5413H6.28817C6.11471 24.5413 5.96813 24.3947 5.96813 24.2212V12.0774C5.96813 11.904 6.11471 11.7574 6.28817 11.7574H7.67205H18.328H19.7117C19.8851 11.7574 20.0317 11.904 20.0317 12.0774V24.2212Z" fill="#919191" stroke="#919191" stroke-width="0.5"/>
<path d="M13.0002 15.3512C12.4699 15.3512 12.04 15.781 12.04 16.3113V19.9874C12.04 20.5178 12.4699 20.9475 13.0002 20.9475C13.5304 20.9475 13.9603 20.5178 13.9603 19.9874V16.3113C13.9603 15.781 13.5304 15.3512 13.0002 15.3512Z" fill="#919191" stroke="#919191" stroke-width="0.5"/>
</g>
<defs>
<clipPath id="clip0">
<rect width="26" height="26" fill="white" transform="translate(0 0.461548)"/>
</clipPath>
</defs>
</svg>
