<svg width="22" height="27" viewBox="0 0 22 27" fill="none" xmlns="http://www.w3.org/2000/svg">
<g clip-path="url(#clip0)">
<path d="M10.9621 1.0769C7.88246 1.0769 5.37695 3.61102 5.37695 6.72593C5.37695 9.84084 7.8824 12.375 10.9621 12.375C14.0417 12.375 16.5472 9.84084 16.5472 6.72593C16.5472 3.61102 14.0417 1.0769 10.9621 1.0769ZM10.9621 11.378C8.42592 11.378 6.36259 9.2911 6.36259 6.72593C6.36259 4.16076 8.42592 2.07376 10.9621 2.07376C13.4982 2.07376 15.5615 4.1607 15.5615 6.72587C15.5615 9.29104 13.4982 11.378 10.9621 11.378Z" fill="#919191" stroke="#919191" stroke-width="1.3"/>
<path d="M10.9619 14.6244C5.79893 14.6244 1.59863 18.8727 1.59863 24.0948C1.59863 24.3701 1.81927 24.5932 2.09142 24.5932H5.37678C5.64893 24.5932 5.86957 24.3701 5.86957 24.0948C5.86957 23.8195 5.64893 23.5964 5.37678 23.5964H2.59857C2.85462 19.1552 6.50796 15.6213 10.9619 15.6213C15.4158 15.6213 19.0692 19.1553 19.3252 23.5964H7.348C7.07585 23.5964 6.85521 23.8195 6.85521 24.0948C6.85521 24.3701 7.07585 24.5932 7.348 24.5932H19.8324C20.1045 24.5932 20.3252 24.3701 20.3252 24.0948C20.3252 18.8727 16.1249 14.6244 10.9619 14.6244Z" fill="#919191" stroke="#919191" stroke-width="1.3"/>
</g>
<defs>
<clipPath id="clip0">
<rect width="21" height="26" fill="white" transform="translate(0.461914 0.0769043)"/>
</clipPath>
</defs>
</svg>
